<svg width="251" height="89" viewBox="0 0 251 89" fill="none" xmlns="http://www.w3.org/2000/svg">
<path fill-rule="evenodd" clip-rule="evenodd" d="M125.077 0.59262C118.415 0.97791 111.511 1.5563 109.735 1.87815C107.959 2.20091 101.781 3.10666 96.0081 3.89103C90.2347 4.67633 84.8377 5.54713 84.014 5.8276C83.1912 6.10714 80.6477 6.67542 78.3618 7.08921C65.3099 9.45245 54.3268 12.5522 39.0819 18.1743C23.5333 23.9077 8.75752 33.8636 3.27725 42.2986C0.735355 46.2113 0.323547 47.5373 0.323547 51.8068C0.323547 56.3052 0.620695 57.1355 3.50819 60.7034C11.3406 70.3788 34.5221 78.7476 67.7469 83.8925C88.7094 87.1385 116.749 89.1872 131.133 88.5233C137.572 88.2263 144.62 87.9863 146.794 87.9891C148.969 87.9918 151.223 87.544 151.806 86.9941C152.388 86.4442 153.243 86.2612 153.706 86.5877C154.17 86.9141 154.549 86.538 154.549 85.7518C154.549 84.4902 152.741 84.3909 139.006 84.9031C122.18 85.5311 93.1828 84.1159 77.8668 81.9201C72.7451 81.1853 65.8291 80.1922 62.4983 79.7131C54.6748 78.5867 46.7447 76.5812 26.1794 70.5269C21.0956 69.0299 11.6571 62.9636 8.79062 59.3507C4.59827 54.0652 5.1861 48.9231 10.8085 41.7074C17.2181 33.4802 33.9068 23.8204 52.405 17.6291C55.0697 16.738 58.1582 15.6787 59.2685 15.2759C65.6224 12.9697 85.7792 8.62578 101.257 6.22668C129.838 1.79631 177.319 1.74297 195.24 6.12001C197.064 6.56599 200.789 7.50301 203.518 8.20278C206.796 9.04417 208.367 9.14256 208.148 8.49336C207.514 6.61105 201.547 5.11863 180.792 1.65194C173.095 0.366412 139.915 -0.264397 125.077 0.59262ZM181.196 15.2235C181.196 16.1017 191.017 19.0323 193.949 19.0286C197.534 19.024 213.202 23.539 224.799 27.9179C234.266 31.4931 236.975 33.1464 240.638 37.586C248.747 47.4132 241.943 58.9535 222.376 68.559C211.85 73.7269 204.033 76.2281 188.88 79.2791C182.031 80.6584 177.967 82.8534 179.359 84.4221C179.975 85.1155 195.288 82.4681 201.721 80.5564C203.533 80.0175 207.196 78.9297 209.861 78.138C233.77 71.0354 250.638 58.1268 250.638 46.9304C250.638 43.2789 248.477 38.5156 245.331 35.2338C241.677 31.4213 233.508 26.7114 227.382 24.8852C199.426 16.5486 181.196 12.7352 181.196 15.2235ZM169.629 83.0796C168.59 84.2631 170.937 86.1527 173.421 86.1325L175.947 86.1123L173.928 84.3136C171.817 82.4322 170.523 82.0617 169.629 83.0796ZM161.393 84.3513C161.107 84.8773 160.228 85.075 159.44 84.79C158.648 84.504 157.551 84.8985 156.987 85.6718C156.101 86.8874 156.403 87.0723 159.267 87.0723C161.741 87.0723 162.784 86.6116 163.431 85.2332C164.115 83.7803 164.045 83.3941 163.104 83.3941C162.448 83.3941 161.678 83.8244 161.393 84.3513Z" fill="#F85039"/>
</svg>
